<svg xmlns="http://www.w3.org/2000/svg" width="1800" height="497" viewBox="0 0 1800 497">
  <defs>
    <style>
      .cls-1 {
        fill-rule: evenodd;
      }
    </style>
  </defs>
  <path id="tracqer" class="cls-1" d="M133.719,95.977V-0.142H48.536V95.977H-0.387V160.44H48.536V364.765h85.183V160.44h56.405V95.977h-56.4ZM366.811,89.07c-32.807,0-65.039,19.569-80.579,63.888V95.977H202.2V364.765h85.183V275.553c0-79.428,27.627-107.631,61.01-107.631,8.634,0,21.871.576,38.563,10.36L407.1,97.128C393.287,90.221,379.473,89.07,366.811,89.07Zm233.665,39.138c-18.418-24.749-51.225-39.138-84.032-39.138-76.55,0-129.5,56.981-129.5,141.589,0,84.032,52.952,141.013,128.351,141.013,33.958,0,66.765-15.541,85.183-40.865v33.958H685.66V95.977H600.476v32.231ZM536.013,292.819c-36.836,0-62.161-29.353-62.161-62.16,0-34.534,25.325-62.737,61.586-62.737,34.533,0,62.16,27.627,62.16,62.737C597.6,263.466,570.547,292.819,536.013,292.819Zm318.836,78.853c51.8,0,91.515-25.325,117.415-63.312l-66.189-41.441c-10.361,16.116-32.232,25.9-50.65,25.9-39.138,0-62.161-29.353-62.161-63.311,0-33.383,23.023-61.586,62.161-61.586,18.418,0,40.289,9.785,50.65,25.9l66.189-41.441C946.364,114.4,906.65,89.07,854.849,89.07c-78.276,0-148.495,55.254-148.495,140.438S776.573,371.672,854.849,371.672ZM1183.48,125.331c-19.57-25.325-55.83-36.261-83.45-36.261-66.77,0-130.08,54.679-130.08,141.013,0,86.91,63.31,141.589,130.08,141.589,27.62,0,63.88-11.512,83.45-37.412V497.144h84.61V95.977h-84.61v29.354Zm-65.03,167.488c-33.39,0-62.17-28.2-62.17-62.736,0-33.958,28.78-62.161,62.17-62.161,32.8,0,61.58,27.627,61.58,62.161C1180.03,265.192,1150.68,292.819,1118.45,292.819ZM1576,224.9c0-81.73-64.47-135.833-141.59-135.833s-144.47,54.679-144.47,142.164c0,81.73,59.86,140.438,145.04,140.438,44.9,0,90.94-17.843,117.42-46.621L1508.66,269.8c-16.7,16.116-42.6,27.627-67.92,27.627-32.23,0-54.68-16.116-62.74-42.016h196.85C1575.42,242.17,1576,232.385,1576,224.9Zm-198.57-19.569c8.63-32.232,33.38-44.319,58.71-44.319,30.5,0,54.1,17.843,55.25,44.319H1377.43ZM1760.15,89.07c-32.8,0-65.04,19.569-80.58,63.888V95.977h-84.03V364.765h85.18V275.553c0-79.428,27.63-107.631,61.01-107.631,8.64,0,21.88.576,38.57,10.36l20.14-81.154C1786.63,90.221,1772.81,89.07,1760.15,89.07Z"/>
</svg>
